<?xml version="1.0" encoding="utf-8"?>
<!-- Generator: Adobe Illustrator 23.1.1, SVG Export Plug-In . SVG Version: 6.00 Build 0)  -->
<svg version="1.1" xmlns="http://www.w3.org/2000/svg" xmlns:xlink="http://www.w3.org/1999/xlink" x="0px" y="0px"
	 viewBox="0 0 728 511" style="enable-background:new 0 0 728 511;" xml:space="preserve">
<style type="text/css">
	.st0{display:none;}
	.st1{display:inline;fill:#97BAB3;}
	.st2{opacity:0.5;}
	.st3{fill:#FFFFFF;}
	.st4{display:inline;}
	.st5{fill:#F8B133;}
	.st6{fill:#575756;}
	.st7{fill:#363635;}
	.st8{fill:#D69A2C;}
	.st9{fill:none;stroke:#FFFFFF;stroke-width:0.8825;stroke-miterlimit:10;}
	.st10{fill:#FFD631;}
	.st11{fill:#9D9DBA;}
	.st12{fill:#F6F6F6;}
	.st13{fill:#E8AFD1;}
	.st14{fill:none;stroke:#5DB3F7;stroke-width:4;stroke-linecap:round;stroke-linejoin:round;stroke-miterlimit:10;}
	.st15{fill:none;stroke:#FFAF83;stroke-width:4;stroke-miterlimit:10;}
	.st16{fill:none;stroke:#FD827B;stroke-width:4;stroke-linecap:round;stroke-linejoin:round;stroke-miterlimit:10;}
	.st17{fill:#F8FAFB;}
	.st18{fill:none;stroke:#FFAF83;stroke-width:3;stroke-miterlimit:10;}
	.st19{fill:none;stroke:#5DB3F7;stroke-width:3;stroke-miterlimit:10;}
	.st20{fill:none;stroke:#FD827B;stroke-width:3;stroke-miterlimit:10;}
	.st21{opacity:0.39;fill:#FF9999;}
	.st22{fill:#DADADA;}
	.st23{fill:#E6332A;}
	.st24{fill:#1D1D1B;}
	.st25{fill:#FFCB9C;}
	.st26{fill:#1B364F;}
	.st27{opacity:0.39;fill:#274F6D;}
	.st28{fill:#662483;}
	.st29{fill:#FFF48D;}
	.st30{fill:#FFCC66;}
	.st31{fill:#FFED00;}
	.st32{fill:#FF5E5A;}
	.st33{fill:none;stroke:#1D1D1B;stroke-miterlimit:10;}
	.st34{fill:#FF6252;}
	.st35{fill:#432918;}
	.st36{fill:#683C11;}
	.st37{fill:#D92D24;}
	.st38{fill:#E84049;}
	.st39{fill:#E26174;}
	.st40{fill:none;}
	.st41{fill:#FBF4E9;}
	.st42{fill:#767074;}
	.st43{fill:#F9C655;}
	.st44{fill:#636363;}
	.st45{fill:#FAEEDD;}
	.st46{fill:#5F5D5E;}
	.st47{fill:#E8B652;}
	.st48{fill:#7C8184;}
	.st49{fill:#B0AFB5;}
	.st50{fill:#E8E1E9;}
	.st51{fill:#2FAC66;}
	.st52{opacity:0.4;}
</style>
<g id="Lager_6" class="st0">
	<rect x="-632" y="-261" class="st1" width="1945" height="1114"/>
</g>
<g id="Lager_8">
	<g class="st2">
		<g>
			<path class="st3" d="M511.44,200.51l17.02,14.2c0.68,0.57,0.71,1.65,0.06,2.43c-0.64,0.77-1.72,0.95-2.4,0.38l-17.02-14.2
				c-0.68-0.56-0.69-1.65-0.05-2.42C509.7,200.12,510.77,199.95,511.44,200.51z"/>
			<path class="st3" d="M508.17,204.44l17.02,14.2c0.68,0.57,0.7,1.66,0.06,2.43c-0.65,0.78-1.72,0.95-2.4,0.38l-1.82-1.52
				l-4.94,2.2c0,0-1.89,0.46-2.45,0.21c-0.56-0.24-6.29-4.03-7.32-6.1c0,0-0.6-0.89-0.22-2.6c0.29-1.31,0.84-4.03,1.1-5.25
				l-1.37-1.14c-0.68-0.56-0.69-1.65-0.05-2.43C506.42,204.05,507.49,203.87,508.17,204.44z"/>
			<path class="st3" d="M514.71,196.59l17.02,14.2c0.68,0.57,0.7,1.66,0.06,2.43c-0.65,0.78-1.72,0.95-2.4,0.38l-17.02-14.2
				c-0.68-0.56-0.7-1.64-0.05-2.42C512.97,196.2,514.04,196.02,514.71,196.59z"/>
			<g>
				<path class="st3" d="M538.01,174.08c0.12-0.49,0.31-0.79,0.56-0.87c0.25-0.09,0.44-0.08,0.55,0.01c0.25,0.21,0.31,0.85,0.2,1.31
					c-0.16,0.69-0.69,1.27-1.21,1.72C537.89,175.42,537.86,174.69,538.01,174.08z"/>
				<path class="st3" d="M545.9,179.49c0.09-0.35,0.45-0.86,0.74-0.95c0.06-0.02,0.1-0.02,0.17,0.04c0.05,0.04,0.12,0.12,0.21,0.28
					c0.2,0.39,0.24,0.9,0.1,1.41c-0.26,0.92-0.75,1.6-1.43,1.94c0-0.09,0-0.17,0-0.26C545.69,181.12,545.7,180.26,545.9,179.49z"/>
				<path class="st3" d="M545.03,191.58c-6.45,3.04-13.05,6.92-20.18,11.84l-2.58-2.15c3.34-7.41,5.85-14.19,7.67-20.7
					c2.35,0.63,4.9,0.25,7.24-1.07c0.77,1.45,1.82,2.62,3.2,3.55c1.15,0.79,2.27,1.28,3.31,1.47
					C543.69,185.9,543.85,189.01,545.03,191.58z"/>
				<path class="st3" d="M551.47,191.7c0.04,0.02,0.08,0.06,0.12,0.09c0.21,0.18,0.39,0.47,0.28,0.69
					c-0.21,0.45-0.68,0.63-1.03,0.71c-0.86,0.19-1.98-0.06-2.6-0.57c-0.05-0.04-0.1-0.09-0.14-0.14c0.37-0.17,0.75-0.33,1.12-0.49
					C550.01,191.64,550.87,191.34,551.47,191.7z"/>
				<path class="st3" d="M529.09,173.9l0.01,0c0.05,0.05,0.17,0.26,0.03,1.24l-0.01,0.08c-0.16,0.7-0.33,1.41-0.52,2.16
					c-0.52-0.53-0.82-1.11-0.85-1.66c-0.03-0.47,0.16-0.92,0.54-1.32C528.72,173.96,529,173.88,529.09,173.9z"/>
				<path class="st3" d="M565.37,153.16c12.67,10.57,14.37,29.4,3.81,42.06c-7.7,9.24-19.8,12.63-30.7,9.71l-3.71,4.45
					c-0.63,0.75-1.74,0.85-2.49,0.23l-5.75-4.8c6.94-4.76,13.37-8.5,19.61-11.43c1.09,1.32,2.5,1.97,4.14,1.91
					c1.14-0.04,2.62-0.54,3.33-1.56c0.44-0.63,0.54-1.38,0.28-2.17c-0.18-0.57-0.49-1.03-0.9-1.37c-1.27-1.06-3.23-0.75-4.53-0.17
					c-0.49,0.21-0.97,0.42-1.46,0.64c-0.79-1.73-1.23-3.94-1.22-6.19c0.68-0.18,1.31-0.52,1.86-1.03c0.95-0.86,1.66-2.71,1.63-4.2
					c-0.03-1.6-0.94-2.63-2.42-2.73c-0.82-0.06-1.51,0.16-2.03,0.65c-1.2,1.12-1.22,3.34-1.23,4.97c0,0.07,0,0.14,0,0.21
					c-0.3-0.08-0.61-0.21-0.92-0.37c-1.62-0.86-2.82-1.92-3.43-3.04c-0.11-0.2-0.22-0.41-0.32-0.62c0.35-0.28,0.68-0.58,0.98-0.87
					c1.33-1.31,1.8-2.68,1.48-4.31c-0.12-0.62-0.47-1.21-0.95-1.61c-0.47-0.39-1.02-0.57-1.59-0.5c-1,0.11-1.77,0.55-2.28,1.29
					c-1.02,1.49-0.63,3.6-0.42,4.44c0.06,0.25,0.13,0.49,0.21,0.74c-1.38,0.81-3.68,1.8-5.87,1.07c0.26-0.99,0.5-1.97,0.72-2.94
					c0.01-0.07,0.03-0.14,0.03-0.21c0.08-0.71,0.15-2.38-0.81-3.19c-0.35-0.29-0.8-0.43-1.31-0.42c-1.6,0.04-2.79,1.4-3.25,2.71
					c-0.58,1.64,0.03,3.42,1.63,4.75c0.17,0.14,0.34,0.27,0.52,0.39c-1.74,6.33-4.18,12.94-7.42,20.19l-4.8-4
					c-0.75-0.63-0.85-1.74-0.23-2.49l3.71-4.45c-4.83-10.2-3.66-22.7,4.04-31.94C533.87,144.3,552.7,142.6,565.37,153.16z"/>
			</g>
		</g>
	</g>
	<g class="st2">
		<g>
			<path class="st3" d="M467.79,152.05l33.48,3.35c1.34,0.13,2.29,1.47,2.14,3.01c-0.15,1.52-1.36,2.65-2.69,2.52l-33.48-3.35
				c-1.33-0.13-2.28-1.48-2.12-3C465.27,153.04,466.46,151.92,467.79,152.05z"/>
			<path class="st3" d="M467.02,159.77l33.48,3.35c1.34,0.13,2.29,1.49,2.14,3.01c-0.15,1.53-1.36,2.66-2.69,2.53l-3.58-0.36
				l-4.34,6.98c0,0-1.98,2.19-2.9,2.36c-0.92,0.17-11.34,0.29-14.39-1.44c0,0-1.52-0.6-2.5-3.08c-0.76-1.89-2.37-5.78-3.09-7.53
				l-2.69-0.27c-1.33-0.13-2.28-1.48-2.12-3.01C464.49,160.77,465.69,159.63,467.02,159.77z"/>
			<path class="st3" d="M468.56,144.33l33.48,3.35c1.34,0.13,2.29,1.48,2.14,3.01c-0.15,1.53-1.36,2.65-2.69,2.52l-33.48-3.35
				c-1.33-0.13-2.28-1.47-2.12-3C466.04,145.33,467.23,144.2,468.56,144.33z"/>
			<g>
				<path class="st3" d="M478.67,96.21c-0.27-0.72-0.28-1.25-0.03-1.58c0.24-0.33,0.48-0.48,0.7-0.46c0.5,0.05,1.11,0.81,1.37,1.48
					c0.39,1.01,0.22,2.19-0.06,3.19C479.67,97.98,479,97.1,478.67,96.21z"/>
				<path class="st3" d="M493.19,96.29c-0.18-0.52-0.17-1.47,0.12-1.83c0.06-0.08,0.11-0.11,0.25-0.1c0.09,0.01,0.26,0.05,0.5,0.18
					c0.59,0.32,1.07,0.93,1.32,1.68c0.46,1.38,0.41,2.65-0.14,3.66c-0.07-0.11-0.15-0.22-0.22-0.33
					C494.32,98.51,493.6,97.43,493.19,96.29z"/>
				<path class="st3" d="M502.39,112.22c-5.51,9.31-10.51,19.81-15.29,32.06l-5.08-0.51c-2.11-12.16-4.73-22.81-7.99-32.54
					c3.49-1.21,6.37-3.86,8.19-7.5c2.2,1.17,4.52,1.74,7.05,1.74c2.12,0,3.94-0.33,5.41-0.97
					C495.88,106.23,498.73,110,502.39,112.22z"/>
				<path class="st3" d="M510.59,106.88c0.07,0,0.15,0,0.23,0.01c0.42,0.04,0.89,0.26,0.95,0.63c0.11,0.74-0.31,1.37-0.69,1.77
					c-0.93,0.97-2.54,1.61-3.75,1.49c-0.1-0.01-0.2-0.03-0.29-0.05c0.33-0.53,0.66-1.05,0.99-1.57
					C508.71,108.06,509.53,106.94,510.59,106.88z"/>
				<path class="st3" d="M467.31,103.58l0.02,0c0.11,0.01,0.43,0.18,1.09,1.54l0.05,0.11c0.4,1.02,0.78,2.06,1.19,3.16
					c-1.1-0.22-1.98-0.7-2.48-1.36c-0.43-0.57-0.58-1.28-0.44-2.12C466.9,103.96,467.18,103.63,467.31,103.58z"/>
				<path class="st3" d="M495.24,46.62c24.92,2.49,43.09,24.7,40.6,49.62c-1.82,18.17-14.12,32.74-30.31,38.34l-0.88,8.76
					c-0.15,1.47-1.46,2.55-2.93,2.4l-11.32-1.13c4.67-11.89,9.56-22.07,14.91-31.07c2.5,0.73,4.81,0.35,6.83-1.13
					c1.4-1.02,2.83-2.91,2.86-4.8c0.02-1.17-0.5-2.19-1.49-2.96c-0.71-0.56-1.49-0.88-2.3-0.96c-2.49-0.25-4.7,1.81-5.84,3.65
					c-0.43,0.68-0.86,1.36-1.29,2.05c-2.47-1.5-4.9-3.9-6.81-6.74c0.71-0.8,1.2-1.77,1.47-2.88c0.46-1.89-0.21-4.82-1.53-6.67
					c-1.41-1.99-3.42-2.51-5.37-1.37c-1.08,0.63-1.76,1.49-2.01,2.54c-0.56,2.43,1.31,5.24,2.68,7.3c0.06,0.09,0.12,0.18,0.18,0.27
					c-0.45,0.15-0.95,0.26-1.47,0.31c-2.76,0.29-5.18-0.02-6.9-0.89c-0.32-0.16-0.63-0.33-0.94-0.51c0.2-0.65,0.36-1.3,0.49-1.93
					c0.55-2.78-0.02-4.9-1.81-6.67c-0.68-0.68-1.62-1.13-2.57-1.22c-0.93-0.09-1.77,0.16-2.43,0.72c-1.16,1-1.76,2.2-1.77,3.57
					c-0.02,2.74,2.27,5.06,3.25,5.93c0.29,0.26,0.59,0.51,0.9,0.75c-1.04,2.19-3.1,5.39-6.46,6.34c-0.52-1.46-1.06-2.9-1.6-4.31
					c-0.04-0.1-0.08-0.2-0.14-0.29c-0.5-0.96-1.84-3.12-3.74-3.31c-0.69-0.07-1.37,0.13-2.01,0.59c-1.97,1.42-2.31,4.13-1.78,6.18
					c0.67,2.55,2.95,4.27,6.1,4.58c0.33,0.03,0.66,0.05,0.99,0.05c3.2,9.44,5.77,19.82,7.87,31.69l-9.44-0.94
					c-1.48-0.15-2.55-1.46-2.4-2.94l0.88-8.76c-14.75-8.7-23.93-25.42-22.12-43.58C448.12,62.31,470.33,44.13,495.24,46.62z"/>
			</g>
		</g>
	</g>
</g>
<g id="Lager_5" class="st0">
	<g class="st4">
		<g>
			<g>
				<path class="st5" d="M465.02,58.25c0.11,0.78-0.44,1.49-1.22,1.6l0,0c-0.78,0.11-1.49-0.44-1.6-1.22l-0.89-6.51
					c-0.11-0.78,0.44-1.49,1.22-1.6l0,0c0.78-0.11,1.49,0.44,1.6,1.22L465.02,58.25z"/>
				<path class="st5" d="M436.74,94.31c0.78-0.11,1.49,0.44,1.6,1.22l0,0c0.11,0.78-0.44,1.49-1.22,1.6l-6.51,0.89
					c-0.78,0.11-1.49-0.44-1.6-1.22l0,0c-0.11-0.78,0.44-1.49,1.22-1.6L436.74,94.31z"/>
				<path class="st5" d="M437.5,78.69c0.71,0.33,1.01,1.18,0.68,1.89l0,0c-0.34,0.71-1.18,1.01-1.89,0.68l-5.94-2.81
					c-0.71-0.34-1.01-1.18-0.68-1.89l0,0c0.34-0.71,1.18-1.01,1.89-0.68L437.5,78.69z"/>
				<path class="st5" d="M493.92,71.01c-0.59,0.51-0.66,1.41-0.15,2l0,0c0.51,0.59,1.41,0.66,2,0.15l4.97-4.3
					c0.59-0.51,0.66-1.41,0.15-2l0,0c-0.51-0.59-1.41-0.66-2-0.15L493.92,71.01z"/>
				<path class="st5" d="M449.23,62.85c0.62,0.47,0.75,1.37,0.27,1.99l0,0c-0.48,0.62-1.37,0.75-1.99,0.27l-5.23-3.97
					c-0.62-0.47-0.75-1.37-0.27-1.99l0,0c0.47-0.63,1.37-0.75,1.99-0.27L449.23,62.85z"/>
				<path class="st5" d="M480.83,60.57c-0.47,0.62-1.37,0.75-1.99,0.27l0,0c-0.62-0.48-0.75-1.37-0.27-1.99l3.97-5.23
					c0.47-0.63,1.37-0.75,1.99-0.27l0,0c0.62,0.48,0.75,1.37,0.27,1.99L480.83,60.57z"/>
				<path class="st5" d="M505.61,84.92c0.78-0.11,1.49,0.44,1.6,1.22l0,0c0.11,0.78-0.44,1.49-1.22,1.6l-6.51,0.89
					c-0.78,0.11-1.49-0.44-1.6-1.22l0,0c-0.11-0.78,0.44-1.49,1.22-1.6L505.61,84.92z"/>
			</g>
			<g>
				<polygon class="st6" points="463.98,128.65 466.26,138.06 483.4,134.39 482.97,124.74 				"/>
				<path class="st7" d="M484.06,126.04c0.09,0.45-0.2,0.89-0.64,0.98l-19.07,3.93c-0.45,0.09-0.89-0.2-0.98-0.64l0,0
					c-0.09-0.45,0.2-0.89,0.65-0.98l19.07-3.93C483.53,125.31,483.97,125.59,484.06,126.04L484.06,126.04z"/>
				<path class="st5" d="M464.73,62.46c-15.09,2.06-25.66,15.96-23.61,31.05c1.43,10.49,8.59,18.79,17.89,22.19
					c1.88,2.52,4.25,6.81,4.97,12.95l18.99-3.91c0.01,0,0.02,0,0.03,0c-0.62-5.49,0.44-9.79,1.49-12.51
					c8.05-5.76,12.73-15.67,11.3-26.17C493.73,70.97,479.83,60.4,464.73,62.46z"/>
				<path class="st7" d="M484.34,128.08c0.09,0.45-0.2,0.89-0.64,0.98l-19.07,3.93c-0.45,0.09-0.89-0.2-0.98-0.64l0,0
					c-0.09-0.45,0.2-0.89,0.65-0.98l19.07-3.93C483.81,127.35,484.24,127.64,484.34,128.08L484.34,128.08z"/>
				<path class="st7" d="M484.63,130.22c0.09,0.45-0.2,0.89-0.64,0.98l-19.07,3.93c-0.45,0.09-0.89-0.2-0.98-0.64l0,0
					c-0.09-0.45,0.2-0.89,0.65-0.98l19.07-3.93C484.1,129.48,484.54,129.77,484.63,130.22L484.63,130.22z"/>
				<path class="st7" d="M484.92,132.35c0.09,0.45-0.2,0.89-0.64,0.98l-19.07,3.93c-0.45,0.09-0.89-0.2-0.98-0.64l0,0
					c-0.09-0.45,0.2-0.89,0.65-0.98l19.07-3.93C484.39,131.62,484.83,131.9,484.92,132.35L484.92,132.35z"/>
				<path class="st7" d="M483.4,134.39l-17.14,3.67l3.79,4.5l1.03-0.14c0.75,1.59,2.47,2.59,4.31,2.34
					c1.84-0.25,3.23-1.67,3.52-3.41l1.15-0.16L483.4,134.39z"/>
				<path class="st8" d="M464.73,62.46c-2.01,0.27-3.93,0.76-5.76,1.43c1.34-0.12,2.68-0.11,4.04,0.05
					c6.2,0.73,11.7,4.39,15.09,9.61c6.76,10.38,6.53,26.87-3.58,35.16c-5.11,4.19-11.92,5.93-18.71,5.59
					c1.03,0.53,2.1,1.01,3.21,1.41c1.88,2.52,4.25,6.81,4.97,12.95l18.99-3.91c0.01,0,0.02,0,0.03,0
					c-0.62-5.49,0.44-9.79,1.49-12.51c8.05-5.76,12.73-15.67,11.3-26.17C493.73,70.97,479.83,60.4,464.73,62.46z"/>
				<path class="st9" d="M468.67,127.49l-6.23-25.05c-0.5-1.96-1.7-8.05-4.72-7.67c-2.83,0.35-2.45,4.35,0.32,4.77
					c1.08,0.17,2.55-1.04,3.27-0.88c1.35,0.29,2.86-1.33,3.08-2.73c0.29-1.85-1.54-2.62-1.72-0.47c-0.33,3.86,6.02,2.47,4.78-0.56
					c-0.23-0.56-0.98-1.29-1.5-0.84c-0.77,0.67-0.25,2.38,0.41,2.9c0.86,0.68,2.24,0.55,3.08-0.09c0.84-0.64,1.56-2.55,0.25-3.15
					c-1.45-0.66-1.76,3.26,0.79,3.2c1.14-0.03,4.08-1.39,2.67-2.92c-1.42-1.54-1.64,1-0.78,1.85c0.77,0.76,2.4,0.82,3.34,0.33
					c0.92-0.48,1.45-1.78,0.9-2.72c-0.43-0.74-1.48-0.79-1.93-0.07c-0.59,0.94,0.38,2.21,1.19,2.68c0.49,0.28,1.15,0.48,1.72,0.46
					c1.39-0.05,2.68-0.01,3.85-0.94c2.9-2.31,0.23-5.67-2.16-2.9c-3.06,3.54-1.66,10.36-1.71,14.65l0.88,18.47"/>
				<path class="st10" d="M466.15,128.21c-0.74-6.06-3.08-10.3-4.95-12.8c-9.3-3.4-16.46-11.7-17.89-22.19
					c-2.01-14.73,8.01-28.32,22.52-30.88c-0.37,0.04-0.73,0.07-1.1,0.12c-15.09,2.06-25.66,15.96-23.61,31.05
					c1.43,10.49,8.59,18.79,17.89,22.19c1.88,2.52,4.25,6.81,4.97,12.95L466.15,128.21z"/>
			</g>
		</g>
	</g>
	<g class="st4">
		<g>
			<g>
				<path class="st5" d="M577.13,81.01c-0.5,1.09-1.78,1.57-2.87,1.07l0,0c-1.09-0.5-1.57-1.78-1.07-2.87l4.16-9.12
					c0.5-1.09,1.78-1.57,2.87-1.07l0,0c1.09,0.5,1.57,1.78,1.07,2.87L577.13,81.01z"/>
				<path class="st5" d="M511.25,104.51c1.09,0.5,1.57,1.78,1.07,2.87l0,0c-0.5,1.09-1.78,1.57-2.87,1.07l-9.12-4.16
					c-1.09-0.5-1.57-1.78-1.07-2.87l0,0c0.5-1.09,1.78-1.57,2.87-1.07L511.25,104.51z"/>
				<path class="st5" d="M524.95,84.98c0.64,1.01,0.34,2.35-0.67,2.99l0,0c-1.01,0.64-2.35,0.34-2.99-0.67l-5.37-8.46
					c-0.64-1.01-0.34-2.35,0.67-2.99l0,0c1.01-0.64,2.35-0.34,2.99,0.67L524.95,84.98z"/>
				<path class="st5" d="M604.04,121.02c-1.18,0.18-2,1.28-1.82,2.47l0,0c0.18,1.18,1.28,2,2.47,1.82l9.91-1.5
					c1.18-0.18,2-1.28,1.82-2.47l0,0c-0.18-1.19-1.28-2-2.47-1.82L604.04,121.02z"/>
				<path class="st5" d="M553,74.09c0.42,1.12-0.15,2.37-1.27,2.79l0,0c-1.12,0.42-2.37-0.15-2.79-1.27l-3.51-9.39
					c-0.42-1.12,0.15-2.37,1.27-2.79l0,0c1.12-0.42,2.37,0.15,2.79,1.27L553,74.09z"/>
				<path class="st5" d="M595.65,96.89c-1.12,0.42-2.37-0.15-2.79-1.27l0,0c-0.42-1.12,0.15-2.37,1.27-2.79l9.39-3.51
					c1.12-0.42,2.37,0.15,2.79,1.27l0,0c0.42,1.12-0.15,2.37-1.27,2.79L595.65,96.89z"/>
				<path class="st5" d="M607.79,148.51c1.09,0.5,1.57,1.78,1.08,2.87l0,0c-0.5,1.09-1.78,1.57-2.87,1.07l-9.12-4.16
					c-1.09-0.5-1.57-1.78-1.07-2.87l0,0c0.5-1.09,1.78-1.57,2.87-1.07L607.79,148.51z"/>
			</g>
			<g>
				<polygon class="st6" points="518.44,171.04 513.72,185.03 538.83,194.25 546.13,181.46 				"/>
				<path class="st7" d="M546.48,184.02c-0.25,0.65-0.97,0.98-1.63,0.74l-27.81-10.47c-0.65-0.24-0.99-0.97-0.74-1.63l0,0
					c0.25-0.65,0.98-0.98,1.63-0.74l27.81,10.47C546.4,182.64,546.73,183.37,546.48,184.02L546.48,184.02z"/>
				<path class="st5" d="M573.33,86.21c-21.16-9.64-46.12-0.3-55.76,20.85c-6.7,14.71-4.22,31.25,5.01,43.21
					c0.37,4.79-0.06,12.25-4.14,20.76l27.69,10.42c0.01,0.01,0.02,0.01,0.04,0.02c3.68-7.59,8.54-12.27,12.12-14.93
					c15.09-0.88,29.19-9.87,35.9-24.57C603.82,120.81,594.49,95.85,573.33,86.21z"/>
				<path class="st7" d="M545.18,186.88c-0.25,0.65-0.97,0.99-1.63,0.74l-27.82-10.47c-0.65-0.24-0.99-0.97-0.74-1.63l0,0
					c0.25-0.65,0.98-0.98,1.63-0.74l27.81,10.47C545.09,185.5,545.42,186.23,545.18,186.88L545.18,186.88z"/>
				<path class="st7" d="M543.81,189.87c-0.25,0.65-0.97,0.99-1.63,0.74l-27.82-10.47c-0.65-0.24-0.99-0.97-0.74-1.63l0,0
					c0.25-0.65,0.98-0.98,1.63-0.74l27.81,10.47C543.73,188.49,544.06,189.22,543.81,189.87L543.81,189.87z"/>
				<path class="st7" d="M542.45,192.86c-0.25,0.65-0.97,0.99-1.63,0.74l-27.82-10.47c-0.65-0.24-0.99-0.97-0.74-1.63l0,0
					c0.25-0.65,0.98-0.98,1.63-0.74l27.81,10.47C542.37,191.48,542.7,192.21,542.45,192.86L542.45,192.86z"/>
				<path class="st7" d="M538.83,194.25l-25.11-9.22l1.23,8.89l1.44,0.66c-0.33,2.67,1.08,5.35,3.65,6.53
					c2.57,1.17,5.52,0.47,7.32-1.53l1.62,0.74L538.83,194.25z"/>
				<path class="st8" d="M573.33,86.21c-2.81-1.28-5.69-2.22-8.59-2.84c1.82,0.93,3.56,2.04,5.17,3.35
					c7.41,5.99,11.52,15.2,11.65,24.69c0.27,18.9-13.46,39.99-33.26,42.46c-10.01,1.25-20.22-2.06-28.7-8.02
					c0.9,1.53,1.89,3.01,2.99,4.43c0.37,4.79-0.06,12.25-4.14,20.76l27.69,10.42c0.01,0.01,0.02,0.01,0.04,0.02
					c3.68-7.59,8.54-12.27,12.12-14.93c15.09-0.88,29.19-9.87,35.9-24.57C603.82,120.81,594.49,95.85,573.33,86.21z"/>
				<path class="st9" d="M525.44,173.35l12.36-37.42c0.94-2.93,4.35-11.77,0.16-13.74c-3.94-1.85-6.71,3.61-3.47,6.42
					c1.26,1.1,4.13,0.74,4.94,1.53c1.51,1.47,4.77,0.62,6.2-1.02c1.88-2.16,0.15-4.64-1.84-2.02c-3.56,4.71,5.76,8.1,6.62,3.16
					c0.16-0.91-0.22-2.46-1.25-2.3c-1.54,0.25-2.26,2.87-1.84,4.07c0.55,1.57,2.44,2.54,4.05,2.39c1.61-0.15,4.09-2.02,2.89-3.86
					c-1.33-2.03-4.93,2.77-1.59,4.77c1.5,0.9,6.4,1.53,5.83-1.59c-0.58-3.14-2.93-0.04-2.51,1.75c0.38,1.61,2.44,3.01,4.04,3.14
					c1.58,0.13,3.32-1.12,3.38-2.78c0.05-1.31-1.27-2.22-2.44-1.66c-1.53,0.73-1.31,3.16-0.64,4.42c0.41,0.76,1.09,1.56,1.84,2
					c1.83,1.07,3.47,2.17,5.74,1.92c5.62-0.62,4.92-7.12-0.43-5.5c-6.83,2.07-10.59,12.02-14.14,17.51l-13.91,24.56"/>
				<path class="st10" d="M521.6,172.23c3.99-8.43,4.41-15.81,4.04-20.56c-9.24-11.96-11.71-28.5-5.01-43.21
					c9.41-20.64,33.4-30.02,54.21-21.51c-0.5-0.25-1-0.5-1.51-0.74c-21.16-9.64-46.12-0.3-55.76,20.85
					c-6.7,14.71-4.22,31.25,5.01,43.21c0.37,4.79-0.06,12.25-4.14,20.76L521.6,172.23z"/>
			</g>
		</g>
	</g>
</g>
<g id="Lager_4">
	<g class="st2">
		<g>
			<g>
				<path class="st12" d="M339.54,164.76c2.53-9.91,0.94-25.76-10.55-30c-1.48-0.55-2.54-1.99-2.64-3.65
					c0.01-0.1-0.83-11.83-7.1-17.3c-2.93-2.58-6.58-3.34-11.33-2.29c-0.48,0.1-0.97,0.12-1.43,0.03c1.3,4.41,2.47,10.59,1.99,17.68
					c-0.02,0.5-0.38,0.89-0.85,0.95c-0.06,0.01-0.12-0.01-0.2,0c-0.54-0.06-0.93-0.55-0.9-1.11c0.56-8.25-1.26-15.25-2.77-19.47
					c0,0,0-0.02-0.01-0.04c-0.02-0.02-0.04-0.03-0.05-0.05c-1.26-2.29-5.93-8.93-10.48-9.4c-2.45-0.26-4.53-0.22-6.53-0.16
					c-4.06,0.1-7.89,0.16-11.94-2.63c-1.68-1.18-4.48-1.73-7.13-1.41c-2.42,0.29-4.36,1.25-5.42,2.67
					c-0.68,0.91-1.69,1.49-2.78,1.55c-1.09,0.07-2.16-0.32-2.97-1.11c-0.02-0.02-1.4-1.32-3.56-2.48
					c-7.81-0.32-18.35,2.83-24.83,10.63c-7.03,8.45-7.39,15.24-7.39,15.3c-0.05,1.04-0.85,1.94-1.77,1.95
					c-12.79,1.13-16.68,16.2-16.72,16.34c-0.19,0.73-0.73,1.29-1.44,1.45c-11.1,2.57-16.36,20.35-16.4,20.52
					c-0.2,0.67-0.72,1.18-1.37,1.36c-0.51,0.15-12.96,3.81-16.68,17.66c-3.87,14.41,1.84,20.08,2.09,20.32
					c0.44,0.42,0.67,1.01,0.64,1.59c2.55,1.43,8.98,4.18,20.53,3.98c0.19-0.07,0.37-0.06,0.55-0.01l0.02,0
					c1.75-0.04,3.6-0.17,5.56-0.36c16.8-1.63,20.43-10.89,21.16-13.78c0.12-0.49,0.16-0.78,0.17-0.87c0.03-0.27,0.17-0.52,0.37-0.68
					c0.22-0.17,0.48-0.22,0.74-0.19c0.06,0.02,6.49,0.83,16.43-6.48c1.3-0.96,2.6-1.96,3.93-2.97c9.49-7.31,20.26-15.59,30.97-7.52
					c0.43,0.34,0.55,0.98,0.23,1.44c-0.32,0.47-0.92,0.56-1.37,0.23c-9.54-7.2-19.27,0.28-28.67,7.52c-1.33,1.03-2.65,2.03-3.95,3
					c-8.26,6.07-14.29,6.86-16.68,6.88c1.1,2.45,4.51,11.64-1.26,20.1c-0.17,0.25-0.42,0.4-0.68,0.43c-0.23,0.03-0.5-0.04-0.69-0.2
					c-0.45-0.32-0.55-0.97-0.23-1.42c4.18-6.12,2.88-12.88,1.76-16.3c-1.87,4.27-7.01,11.09-20.97,12.77
					c-0.35,0.04-0.7,0.08-1.07,0.11c-2.1,0.21-4.09,0.33-5.94,0.36c0,0,0,0-0.02,0c-1.75,0.68-11.63,5.22-13.73,20.42
					c2.23,1.2,4.95,2.07,7.63,1.46c0.54-0.09,1.05,0.24,1.16,0.79c0.13,0.56-0.2,1.1-0.74,1.22c-0.33,0.08-0.66,0.12-0.97,0.16
					c-3.1,0.37-6.11-0.73-8.47-2.05c-0.12-0.03-0.25-0.09-0.34-0.21c-0.02,0-0.04-0.02-0.06-0.03c-2.6-1.52-4.35-3.26-4.48-3.41
					c-0.4-0.39-0.4-1.05-0.03-1.44c0.36-0.42,0.99-0.43,1.37-0.02c0.02,0.02,1.23,1.22,3.09,2.46c1.76-11.05,7.43-16.71,11.33-19.35
					c-9.41-0.37-14.92-2.71-17.48-4.15c-17.55,25.8,2.11,47.95,2.97,48.89c0.3,0.34,0.48,0.73,0.53,1.16l0,0.02
					c1.09,0.74,2.33,1.37,3.68,1.81c2.07,0.68,4.76,0.83,8.04,0.44c5.39-0.65,10.59-2.57,12.3-3.26c-3.32-3.56-6.98-9.16-9.73-17.79
					c-0.1-0.3-0.06-0.64,0.09-0.88c0.13-0.2,0.31-0.35,0.52-0.41c0.51-0.17,1.08,0.12,1.24,0.65c2.88,9.09,6.85,14.6,10.22,17.89
					c0.85,0.06,1.7,0.41,2.37,1.04c0.04,0,2.82,1.81,11.6,3.21c5.03,0.8,10.24,0.93,14.86,1.02c5.64,0.13,10.1,0.23,12.99,1.56
					c1.33,0.62,5.34,1.22,10.07,0.65c3.47-0.42,8.43-1.57,12.38-4.71c5.26-4.18,6.64-6.27,6.95-6.82c0.12-0.67,0.41-1.31,0.84-1.86
					c0.7-0.87,1.7-1.38,2.8-1.43c0.06,0.02,0.57-0.02,1.4-0.12c2.29-0.28,8.15-1.25,13.24-4.4c3.28-2,5.5-4.83,7.46-7.32
					c2.39-3.03,4.66-5.91,8.25-6.61c2.31-0.46,3.67-3.54,3.68-3.58c0.17-0.39,0.38-0.77,0.66-1.05c0.99-2.58,2.24-6.9,2.58-13.07
					c0.26-4.55,0.02-10.1-1.15-16.71c-0.09-0.56,0.26-1.1,0.78-1.19c0.52-0.1,1.05,0.26,1.14,0.83c1.04,5.86,1.37,10.93,1.28,15.21
					c1.48-1.27,3.69-3.64,5.3-7.29c0.21-0.52,0.8-0.74,1.3-0.51c0.48,0.25,0.71,0.85,0.48,1.37c-2.36,5.43-5.93,8.23-7.19,9.08
					c-0.31,4.66-1.11,8.27-1.94,10.89c0.02,0,0.06-0.01,0.08-0.01c0.04,0,0.35-0.02,0.84-0.08c3.43-0.41,15.07-2.47,20.38-11.6
					c5.99-10.26-0.58-20.89-0.66-21.01c-0.87-1.36-0.89-3.16-0.03-4.52C330.87,184.92,336.86,175.32,339.54,164.76z M278.09,103.82
					c0.41-0.38,1.02-0.33,1.37,0.1c0.16,0.21,3.86,4.76,5.12,9.21c1.79,0.32,6.33,1.9,11.21,9.62c0.31,0.48,0.19,1.11-0.26,1.42
					c-0.13,0.1-0.28,0.16-0.41,0.17c-0.37,0.04-0.74-0.14-0.94-0.47c-5.51-8.69-10.3-8.75-10.34-8.77
					c-0.47,0.02-0.88-0.32-0.98-0.79c-0.92-4.19-4.82-9-4.87-9.06C277.62,104.82,277.68,104.18,278.09,103.82z M235.79,122.62
					c0.05-0.11,3.92-11.21,16.37-10.81c0.54,0.04,0.96,0.5,0.95,1.06c-0.01,0.58-0.45,1-1,1.01c-10.97-0.4-14.34,9.03-14.47,9.44
					c-0.13,0.37-0.43,0.63-0.8,0.67c-0.14,0.02-0.3,0-0.44-0.07C235.89,123.74,235.62,123.15,235.79,122.62z M195.62,161.09
					c0.26-0.26,6.04-5.93,13.78-5.35c-0.51-3.8-0.93-14.3,8.62-20.88c0.43-0.3,1.04-0.17,1.36,0.31c0.29,0.48,0.17,1.11-0.28,1.42
					c-10.57,7.28-7.68,19.55-7.54,20.07c0.08,0.32-0.02,0.68-0.22,0.93c-0.22,0.25-0.55,0.38-0.87,0.31
					c-7.49-1.23-13.41,4.63-13.48,4.68c-0.14,0.16-0.34,0.25-0.56,0.27c-0.29,0.04-0.6-0.07-0.83-0.31
					C195.24,162.13,195.24,161.48,195.62,161.09z M260.65,143.66c5.18,2.97,4.99,7,4.56,8.83c-1.13,4.85-6.66,8.92-10.75,7.92
					c-0.53-0.14-0.85-0.68-0.74-1.23c0.11-0.55,0.64-0.9,1.17-0.78c3,0.73,7.58-2.73,8.44-6.41c0.68-2.89-0.95-5.32-4.58-7.05
					c-0.96-0.46-2.03-0.87-3.26-1.22c-11.58-3.38-18.1,8.64-22.85,17.39c-1.82,3.38-3.27,6.05-4.76,7.41
					c-4.56,4.24-13.55,4.25-16.44,4.14c-0.58,3.23-3.22,13.66-12.74,15.64c-0.67,0.14-1.31,0.24-1.91,0.31
					c-9.79,1.18-13.15-5.29-13.3-5.59c-0.24-0.51-0.06-1.13,0.43-1.37c0.48-0.26,1.05-0.06,1.31,0.44c0.13,0.25,3.3,6.19,13.08,4.19
					c9.87-2.03,11.33-14.68,11.34-14.81c0.07-0.54,0.52-0.95,1.03-0.91c0.12,0.01,11.15,0.83,15.9-3.59
					c1.24-1.14,2.69-3.81,4.36-6.91c4.78-8.82,11.99-22.13,25.06-18.33c1.06,0.3,2.01,0.65,2.84,1c1.19-1.42,7.1-9.32,1.28-19.11
					c-3.48,1.84-5.51,5.41-5.66,5.63c-0.16,0.29-0.42,0.46-0.73,0.5c-0.19,0.02-0.42-0.03-0.61-0.15c-0.47-0.28-0.62-0.92-0.35-1.41
					c0.05-0.11,6.31-11.04,16.2-6.82c0.5,0.23,0.75,0.82,0.53,1.34c-0.19,0.54-0.75,0.77-1.27,0.57c-2.37-1.02-4.49-0.99-6.29-0.44
					C267.65,132.83,262.5,141.19,260.65,143.66z M232.34,206.65c0.19-0.54,4.77-13.03,19.88-15.75c0.71-3.74,2.43-6.3,2.55-6.46
					c0.32-0.47,0.92-0.57,1.37-0.23c0.43,0.32,0.53,0.97,0.23,1.42c-0.03,0.04-1.55,2.33-2.19,5.67c0.05,0.1,0.08,0.2,0.1,0.3
					c0.06,0.32-0.06,0.63-0.27,0.86c-0.23,1.89-0.13,4.02,0.65,6.24c0.2,0.51-0.06,1.1-0.57,1.31c-0.07,0.03-0.13,0.04-0.21,0.05
					c-0.45,0.05-0.89-0.2-1.05-0.68c-0.8-2.26-1-4.42-0.86-6.36c-13.55,2.79-17.74,14.23-17.79,14.36
					c-0.13,0.37-0.44,0.61-0.81,0.65c-0.14,0.02-0.3,0-0.46-0.07C232.42,207.77,232.15,207.18,232.34,206.65z M273.9,234.85
					c-3.91,0.84-8.54-0.01-10.3-0.4c-5.09,8.71-12.93,10.09-14.6,10.29c-0.17,0.02-0.27,0.03-0.31,0.04
					c-0.53,0.04-1.01-0.39-1.04-0.95c-0.05-0.57,0.34-1.07,0.89-1.1c0.09-0.03,8.68-0.75,13.73-9.97c0.21-0.4,0.66-0.58,1.09-0.46
					c0.06,0.01,5.71,1.52,10.12,0.54c0.52-0.1,1.05,0.24,1.18,0.81C274.77,234.19,274.44,234.75,273.9,234.85z M283.35,233.78
					c-0.17,0.21-0.41,0.34-0.64,0.37c-0.25,0.03-0.52-0.04-0.74-0.22c-0.42-0.36-0.49-1.01-0.15-1.45c7.55-9.72,4.6-22.3,4.56-22.42
					c-0.13-0.56,0.18-1.11,0.7-1.24c0.53-0.15,1.07,0.2,1.19,0.74C288.42,210.12,291.51,223.24,283.35,233.78z M286.21,202.42
					c-3.61,7.31-13.28,11.96-20.7,9.95c-11.34-3.06-20.18-0.76-23.04,6.01c-2.75,6.55-10.7,9.13-13.24,9.81
					c-0.13,2.37-1.35,8.86-10.09,12.3c-1.67,0.68-3.3,1.06-4.83,1.24c-7.97,0.96-13.65-3.6-13.92-3.84
					c-0.44-0.36-0.51-0.99-0.17-1.44c0.32-0.45,0.94-0.53,1.36-0.16c0.31,0.25,7.49,5.98,16.86,2.29
					c9.24-3.65,8.86-11.06,8.85-11.14c-0.02-0.52,0.3-0.97,0.78-1.07c0.1-0.03,9.79-2.15,12.63-8.83
					c3.26-7.74,12.94-10.48,25.29-7.15c6.49,1.76,15.32-2.5,18.5-8.91c2.31-4.7,1.07-9.57-3.5-13.75c-0.4-0.38-0.46-1.02-0.1-1.45
					c0.34-0.41,0.97-0.47,1.39-0.09C289.46,192.76,287.83,199.17,286.21,202.42z M277.48,157.31c-2.55,1.05-3.37,3.42-3.38,3.44
					c-0.17,0.52-0.73,0.81-1.25,0.61c-0.51-0.19-0.78-0.77-0.59-1.32c0.04-0.13,1.12-3.27,4.5-4.63c3.08-1.26,6.93-0.63,11.48,1.86
					c10.97,5.97,15.65,3.53,15.71,3.52c0.46-0.26,1.05-0.08,1.31,0.42c0.27,0.48,0.11,1.1-0.37,1.36c-0.07,0.05-0.86,0.5-2.45,0.69
					c-2.66,0.32-7.54-0.06-15.08-4.2C283.33,156.88,280.01,156.29,277.48,157.31z M314.08,164.87
					c-1.02,13.75-12.03,20.03-15.45,21.67c0.38,2.78,1.14,5.85,2.64,8.71c0.26,0.49,0.09,1.1-0.38,1.39
					c-0.11,0.05-0.23,0.09-0.34,0.1c-0.39,0.05-0.78-0.13-0.99-0.52c-1.63-3.13-2.49-6.43-2.89-9.44c-0.15-0.11-0.25-0.26-0.31-0.44
					c-0.12-0.36-0.05-0.74,0.16-0.99c-0.46-4.82,0.17-8.53,0.22-8.78c0.09-0.57,0.62-0.92,1.14-0.82c0.53,0.12,0.87,0.66,0.77,1.21
					c-0.01,0.07-0.54,3.2-0.23,7.4c3.65-1.86,12.83-7.7,13.71-19.66c0.62-8.29-2.7-14.07-5.58-17.46c-3.75-4.38-9.1-7.31-13.67-7.48
					c-0.4-0.01-0.76-0.28-0.91-0.67c-0.13-0.4-0.02-0.84,0.28-1.11c0.05-0.05,4.97-4.67,6.84-9.66c0.19-0.52,0.77-0.77,1.27-0.57
					c0.5,0.21,0.74,0.8,0.55,1.34c-1.37,3.65-4.12,7-5.84,8.88c4.55,0.84,9.32,3.75,12.91,7.93
					C311.14,149.57,314.75,155.87,314.08,164.87z M325.23,170.9c-0.11,0.38-0.44,0.63-0.8,0.67c-0.14,0.02-0.29,0.02-0.44-0.05
					c-0.51-0.19-0.78-0.75-0.61-1.29c0.04-0.17,0.9-2.79,3.49-5.62c2.56-17.45-5.72-24.32-5.81-24.39
					c-0.43-0.34-0.53-0.99-0.19-1.44c0.32-0.45,0.94-0.52,1.37-0.18c0.35,0.29,8.52,7.07,6.86,23.95c0.82-0.67,1.77-1.33,2.84-1.91
					c0.48-0.27,1.07-0.07,1.33,0.44c0.26,0.49,0.07,1.11-0.4,1.37c-1.86,1.03-3.29,2.24-4.41,3.42
					C326.03,168.43,325.25,170.86,325.23,170.9z"/>
				<path class="st12" d="M164.59,203.7c-2.04-2.87-5.58-10.11-2.09-23.1c3.73-13.83,14.91-18.87,18.39-20.14
					c1.35-4,6.72-18.22,17.42-21.82c-1.11-1.54-4.2-4.84-10.29-5.6c-0.54-0.06-0.92-0.57-0.86-1.13c0.05-0.57,0.53-0.97,1.07-0.89
					c6.03,0.74,9.49,3.79,11.12,5.73c1.91-4.94,6.94-14.46,17.62-16.22c0.5-2.89,2.24-9.01,8.12-16.07
					c4.06-4.89,9.24-8.03,14.43-9.87c-0.09-0.07-0.2-0.16-0.28-0.23c-0.07-0.07-7.9-6.94-15.58-6.01c-1.32,0.16-2.57,0.54-3.74,1.15
					c-0.33,0.16-0.67,0.35-0.98,0.51c-0.08,0.28-0.3,0.49-0.56,0.58c-0.17,0.06-16.3,6.28-22.72,20.97
					c1.81,0.48,3.71,1.43,5.54,3.05c0.42,0.36,0.46,1.02,0.11,1.45c-0.15,0.21-0.39,0.32-0.63,0.35c-0.25,0.03-0.54-0.04-0.74-0.24
					c-1.76-1.56-3.59-2.4-5.33-2.77c-0.09,0.05-0.19,0.08-0.3,0.1c-0.16,0.02-0.32,0-0.48-0.07c-0.12-0.04-0.21-0.12-0.3-0.21
					c-3.98-0.53-7.21,1.09-7.41,1.2c-0.5,0.24-1.08,0.05-1.31-0.46c-0.26-0.5-0.06-1.13,0.42-1.37c0.22-0.13,3.88-1.97,8.43-1.42
					c2.81-6.7,7.4-11.71,11.84-15.28c-3.11,0.93-6.46,1.6-10.69,2.11c-1.28,0.15-2.66,0.3-4.16,0.44L190,98.49
					c-9.46,1.14-12.24,7.15-12.37,7.41c-0.68,1.55-2.25,2.54-3.88,2.39c-0.04-0.02-3.1-0.29-7.23,0.21
					c-6.05,0.73-14.19,3.07-18.57,10.12c-7.1,11.42-3.66,17.78-3.51,18.06c0.52,0.91,0.7,2.04,0.47,3.08
					c5.21,0.61,12.03,2.52,17.52,7.91c0.4,0.39,0.42,1.02,0.06,1.44c-0.15,0.18-0.36,0.29-0.59,0.32c-0.27,0.03-0.56-0.06-0.78-0.28
					c-5.35-5.24-12.21-6.94-17.22-7.43c-0.45,0.51-1.02,0.89-1.64,1.06c-0.13,0.04-13.66,4.22-15.99,16.05
					c-2.49,12.69-1.72,16.98-1.69,17.01c0.29,1.08,0.14,2.15-0.42,3.08c1.65-0.01,3.36,0.26,4.74,1.1c0.76-1.06,1.85-2.14,3.38-3.17
					c0.46-0.28,1.06-0.15,1.36,0.33c0.29,0.48,0.17,1.11-0.28,1.42c-5.52,3.68-3.84,7.67-3.82,7.71c0.22,0.51,0.02,1.11-0.49,1.36
					c-0.09,0.03-0.19,0.06-0.28,0.07c-0.41,0.05-0.83-0.17-1.02-0.6c-0.02-0.04-1.02-2.42,0.18-5.35c-2.55-1.55-7.38-0.54-9.11,0.02
					c-0.1,0.03-0.17,0.04-0.27,0.03c-2.1,1.2-4.33,3.74-3.94,9.09c1.57,4.06,4.23,8.97,8.43,12c0.45,0.34,0.57,0.96,0.27,1.44
					c-0.17,0.25-0.42,0.4-0.69,0.43c-0.23,0.03-0.48-0.03-0.67-0.17c-3.36-2.43-5.8-5.87-7.5-9.22c-1.08,2.83-8.51,23.61-0.74,35.42
					c6.92,10.57,15.94,10.37,18.52,10.06c0.02,0,0.02,0,0.02,0c0.25-0.03,0.42-0.07,0.48-0.08c0.5-0.1,0.99-0.1,1.46-0.01
					c3.05-3.13,5.88-8.82,3.5-18.64c-3.51-1.23-5.18-4.15-5.21-4.18c-0.28-0.51-0.12-1.12,0.34-1.41c0.48-0.27,1.07-0.11,1.34,0.37
					c0.08,0.15,1.49,2.57,4.52,3.42c0.02,0.02,0.04,0.02,0.06,0.01c1.57,0.43,3.54,0.44,5.98-0.47c0.51-0.2,1.05,0.08,1.25,0.61
					c0.18,0.54-0.08,1.13-0.59,1.31c-1.13,0.42-2.18,0.67-3.17,0.79c-0.87,0.1-1.7,0.1-2.44,0.03c2.06,9.56-0.63,15.5-3.77,19.02
					c0.55,0.47,0.98,1.1,1.22,1.83c0.18,0.47,1.94,4.99,6.95,5.27c1.03,0.05,2.17,0.01,3.37-0.13c5.9-0.71,11.61-3.55,11.67-3.58
					c0.5-0.24,1.03-0.39,1.57-0.39C156.51,234.7,153.97,219.75,164.59,203.7z M139.61,199.46c-4.4,4.5-1.76,10.52-1.66,10.75
					c0.24,0.53,0.04,1.13-0.47,1.37c-0.09,0.03-0.19,0.07-0.29,0.08c-0.41,0.05-0.83-0.17-1.01-0.58
					c-0.03-0.08-3.35-7.59,2.04-13.11c0.38-0.4,1.02-0.37,1.38,0.02C139.99,198.4,139.99,199.06,139.61,199.46z M155.95,129.06
					c-0.16,0.29-0.44,0.46-0.73,0.5c-0.21,0.03-0.42-0.03-0.63-0.15c-0.45-0.3-0.6-0.92-0.33-1.4c0.08-0.16,1.92-3.31,5.43-4.12
					c0.39-2.13,1.92-8.08,7.68-10.9c0.48-0.24,1.06-0.02,1.3,0.51c0.24,0.51,0.02,1.11-0.47,1.36c-5.94,2.92-6.67,9.97-6.68,10.05
					c-0.04,0.46-0.39,0.85-0.84,0.91C157.66,126.17,155.96,129.04,155.95,129.06z M147.81,191.1c0.22,0.53,0.02,1.14-0.46,1.38
					c-0.09,0.05-0.21,0.09-0.3,0.1c-0.41,0.05-0.81-0.19-0.99-0.58c-0.08-0.16-6.85-15.23,6.09-26.4
					c12.52-10.86,17.87-16.46,16.3-24.45c-1.14-5.89,0.18-11.75,3.38-14.93c2.18-2.14,4.97-2.82,8.08-1.98
					c0.51,0.15,0.84,0.73,0.7,1.26c-0.13,0.55-0.66,0.89-1.19,0.74c-2.42-0.68-4.58-0.15-6.23,1.49c-2.69,2.66-3.83,7.89-2.82,13.02
					c1.86,9.59-4.89,15.97-16.97,26.43C141.65,177.33,147.55,190.56,147.81,191.1z"/>
			</g>
		</g>
	</g>
</g>
<g id="Lager_1">
	<g>
		<path class="st13" d="M470.5,168.19c39.99,24.37,24.74,47.21,52.78,70.61c15.74,13.13,43.16,20.64,59.13,43.08
			c29.77,41.83-18.43,76.4-51.93,98.76c-13.33,8.89-34.37,14.87-44.76,36.93c-5.45,11.57-2.6,39.89-33.26,50.34
			c-31.88,10.87-53.29-14.62-74.47-16.28c-28.16-2.22-42.97,4.85-71.25,4.82c-37.06-0.03-74.85-4.19-96.01-35.83
			c-8.14-12.17-13.22-25.78-16.7-39.64c-3.16-12.57-1.71-25.78-9.92-36.97c-12.18-16.6-30.56-23.17-35.1-44.94
			c-9.71-46.63,44.51-59.43,82.17-74.95c20.62-8.5,26.21-34.15,41.31-48.5c21.83-20.74,53.99-32.35,85.46-32.96
			S438.9,148.93,470.5,168.19z"/>
	</g>
	<path class="st14" d="M10.35,359.38c96.57,90.46,219.5,24.73,219.5,24.73"/>
	<path class="st15" d="M414.64,306.16c10.84,3.88,58.01,44.64,84.3,64.86"/>
	<path class="st15" d="M254.57,343.76c0,0,36.76-61.13,98.76-51.12"/>
	<path class="st16" d="M498.94,371.03c18.01,11.9,26.69,13.04,51.59,15.31c95.76,8.73,164.09-49.4,164.09-49.4"/>
	<g>
		<g>
			<path class="st17" d="M361.2,186.2c51.11,0,81.08,23.62,81.08,64.16c0,51.11-52.88,61.34-52.88,98.35h-58.87
				c0-52.52,38.78-58.16,38.78-85.31c0-10.22-4.94-14.81-15.51-14.81c-13.04,0-19.04,8.81-19.04,27.85h-60.63
				C274.13,219.69,306.21,186.2,361.2,186.2z M395.04,403.35c0,21.5-14.81,36.31-36.31,36.31c-21.15,0-35.96-14.81-35.96-36.31
				c0-21.15,14.81-35.96,35.96-35.96C380.23,367.39,395.04,382.2,395.04,403.35z"/>
		</g>
		<g>
			<g>
				<path class="st18" d="M369.11,178.19c51.11,0,81.08,23.62,81.08,64.16c0,51.11-52.88,61.34-52.88,98.35h-58.87
					c0-52.52,38.78-58.16,38.78-85.31c0-10.22-4.94-14.81-15.51-14.81c-13.04,0-19.04,8.81-19.04,27.85h-60.63
					C282.04,211.68,314.12,178.19,369.11,178.19z M402.95,395.33c0,21.5-14.81,36.31-36.31,36.31c-21.15,0-35.96-14.81-35.96-36.31
					c0-21.15,14.81-35.96,35.96-35.96C388.15,359.38,402.95,374.18,402.95,395.33z"/>
			</g>
		</g>
	</g>
	<g>
		<g>
			<path class="st17" d="M251.29,398.88c-19.01,19.01-38.93,21.37-54.01,6.29c-19.01-19.01-3.15-42.47-16.91-56.23l21.89-21.89
				c19.53,19.53,7.21,36.05,17.3,46.14c3.8,3.8,7.34,3.67,11.27-0.26c4.85-4.85,3.8-10.36-3.28-17.43l22.55-22.55
				C271.21,354.05,271.74,378.43,251.29,398.88z M157.96,330.71c-8-8-8-19.01,0-27c7.86-7.86,18.88-7.86,26.87,0.13
				c7.86,7.86,7.86,18.88,0,26.74C176.83,338.58,165.82,338.58,157.96,330.71z"/>
		</g>
		<g>
			<g>
				<path class="st19" d="M251.33,404.8c-19.01,19.01-38.93,21.37-54.01,6.29c-19.01-19.01-3.15-42.47-16.91-56.23l21.89-21.89
					c19.53,19.53,7.21,36.05,17.3,46.14c3.8,3.8,7.34,3.67,11.27-0.26c4.85-4.85,3.8-10.36-3.28-17.43l22.55-22.55
					C271.25,359.97,271.77,384.35,251.33,404.8z M157.99,336.64c-8-8-8-19.01,0-27c7.86-7.86,18.88-7.86,26.87,0.13
					c7.86,7.86,7.86,18.88,0,26.74C176.87,344.5,165.86,344.5,157.99,336.64z"/>
			</g>
		</g>
	</g>
	<g>
		<g>
			<path class="st17" d="M549.58,318.36c20.73,17.11,24.97,36.72,11.4,53.16c-17.11,20.73-41.98,7.17-54.37,22.18L482.73,374
				c17.58-21.3,35.2-10.61,44.29-21.61c3.42-4.15,2.96-7.66-1.33-11.2c-5.29-4.37-10.67-2.8-17.04,4.92l-24.59-20.3
				C503.05,302.79,527.27,299.95,549.58,318.36z M490.6,417.75c-7.2,8.72-18.16,9.77-26.88,2.57c-8.58-7.08-9.62-18.04-2.43-26.76
				c7.08-8.58,18.04-9.63,26.62-2.54C496.63,398.22,497.68,409.18,490.6,417.75z"/>
		</g>
		<g>
			<g>
				<path class="st20" d="M555.47,317.76c20.73,17.11,24.97,36.72,11.4,53.16c-17.11,20.73-41.98,7.17-54.37,22.18l-23.87-19.71
					c17.58-21.3,35.2-10.61,44.29-21.61c3.42-4.15,2.96-7.66-1.33-11.2c-5.29-4.37-10.67-2.8-17.04,4.92l-24.59-20.3
					C508.95,302.19,533.17,299.35,555.47,317.76z M496.49,417.15c-7.2,8.72-18.16,9.77-26.88,2.57c-8.58-7.08-9.62-18.04-2.43-26.76
					c7.08-8.58,18.04-9.63,26.62-2.54C502.53,397.61,503.58,408.57,496.49,417.15z"/>
			</g>
		</g>
	</g>
	<g>
		<g>
			<g>
				<path class="st3" d="M248.46,299.55c-3.99-6.95-7.97-13.9-11.96-20.86c-0.56-0.98-1.12-1.96-1.69-2.94
					c-0.96-1.67-3.55-0.17-2.59,1.51c3.99,6.95,7.97,13.9,11.96,20.86c0.56,0.98,1.12,1.96,1.69,2.94
					C246.83,302.74,249.43,301.23,248.46,299.55L248.46,299.55z"/>
			</g>
		</g>
		<g>
			<g>
				<path class="st3" d="M257.84,294.87c-0.48-5.98-0.96-11.96-1.44-17.95c-0.07-0.86-0.14-1.72-0.21-2.58c-0.15-1.91-3.15-1.93-3,0
					c0.48,5.98,0.96,11.96,1.44,17.95c0.07,0.86,0.14,1.72,0.21,2.58C254.99,296.79,257.99,296.8,257.84,294.87L257.84,294.87z"/>
			</g>
		</g>
		<g>
			<g>
				<path class="st3" d="M237.9,306.19c-4.03-2.64-8.06-5.27-12.09-7.91c-0.58-0.38-1.16-0.76-1.75-1.14
					c-0.68-0.44-1.66-0.14-2.05,0.54c-0.43,0.73-0.14,1.61,0.54,2.05c4.03,2.64,8.06,5.27,12.09,7.91c0.58,0.38,1.16,0.76,1.75,1.14
					c0.68,0.44,1.66,0.14,2.05-0.54C238.87,307.51,238.58,306.64,237.9,306.19L237.9,306.19z"/>
			</g>
		</g>
	</g>
	<g>
		<g>
			<g>
				<path class="st3" d="M462.57,291.67c2.74-5.85,5.47-11.7,8.21-17.55c0.34-0.73,0.21-1.62-0.54-2.05
					c-0.65-0.38-1.71-0.2-2.05,0.54c-2.74,5.85-5.47,11.7-8.21,17.55c-0.34,0.73-0.21,1.62,0.54,2.05
					C461.17,292.59,462.23,292.41,462.57,291.67L462.57,291.67z"/>
			</g>
		</g>
		<g>
			<g>
				<path class="st3" d="M468.09,299.9c6.58-4.37,13.17-8.73,19.75-13.1c0.95-0.63,1.9-1.26,2.85-1.89c1.6-1.06,0.1-3.66-1.51-2.59
					c-6.58,4.37-13.17,8.73-19.75,13.1c-0.95,0.63-1.9,1.26-2.85,1.89C464.98,298.37,466.48,300.97,468.09,299.9L468.09,299.9z"/>
			</g>
		</g>
		<g>
			<g>
				<path class="st3" d="M472.71,308.54c5.65-0.8,11.31-1.6,16.96-2.4c0.8-0.11,1.61-0.23,2.41-0.34c0.8-0.11,1.24-1.14,1.05-1.85
					c-0.24-0.86-1.04-1.16-1.85-1.05c-5.65,0.8-11.31,1.6-16.96,2.4c-0.8,0.11-1.61,0.23-2.41,0.34c-0.8,0.11-1.24,1.14-1.05,1.85
					C471.11,308.35,471.91,308.65,472.71,308.54L472.71,308.54z"/>
			</g>
		</g>
	</g>
	<g>
		<g>
			<g>
				<path class="st3" d="M424.27,422.46c4.77,6.43,9.55,12.86,14.32,19.29c0.67,0.9,1.34,1.81,2.01,2.71
					c1.14,1.53,3.74,0.04,2.59-1.51c-4.77-6.43-9.55-12.86-14.32-19.29c-0.67-0.9-1.34-1.81-2.01-2.71
					C425.72,419.42,423.12,420.91,424.27,422.46L424.27,422.46z"/>
			</g>
		</g>
		<g>
			<g>
				<path class="st3" d="M414.9,427.14c0.48,5.98,0.96,11.96,1.44,17.95c0.07,0.86,0.14,1.72,0.21,2.58c0.15,1.91,3.15,1.93,3,0
					c-0.48-5.98-0.96-11.96-1.44-17.95c-0.07-0.86-0.14-1.72-0.21-2.58C417.74,425.23,414.74,425.21,414.9,427.14L414.9,427.14z"/>
			</g>
		</g>
		<g>
			<g>
				<path class="st3" d="M434.83,415.82c4.03,2.64,8.06,5.27,12.09,7.91c0.58,0.38,1.16,0.76,1.75,1.14
					c0.68,0.44,1.66,0.14,2.05-0.54c0.43-0.73,0.14-1.61-0.54-2.05c-4.03-2.64-8.06-5.27-12.09-7.91c-0.58-0.38-1.16-0.76-1.75-1.14
					c-0.68-0.44-1.66-0.14-2.05,0.54C433.87,414.5,434.15,415.38,434.83,415.82L434.83,415.82z"/>
			</g>
		</g>
	</g>
	<g>
		<g>
			<g>
				<path class="st3" d="M296.03,421.41c-0.17,6.46-0.34,12.91-0.52,19.37c-0.05,1.93,2.95,1.93,3,0
					c0.17-6.46,0.34-12.91,0.52-19.37C299.08,419.48,296.08,419.48,296.03,421.41L296.03,421.41z"/>
			</g>
		</g>
		<g>
			<g>
				<path class="st3" d="M287.61,416.03c-4.3,6.64-8.6,13.29-12.9,19.93c-0.61,0.95-1.22,1.89-1.84,2.84
					c-1.05,1.63,1.54,3.13,2.59,1.51c4.3-6.64,8.6-13.29,12.9-19.93c0.61-0.95,1.22-1.89,1.84-2.84
					C291.25,415.92,288.66,414.42,287.61,416.03L287.61,416.03z"/>
			</g>
		</g>
		<g>
			<g>
				<path class="st3" d="M280.19,409.7c-4.86,2.99-9.73,5.99-14.59,8.98c-0.69,0.42-1.38,0.85-2.07,1.27
					c-1.64,1.01-0.14,3.61,1.51,2.59c4.86-2.99,9.73-5.99,14.59-8.98c0.69-0.42,1.38-0.85,2.07-1.27
					C283.35,411.28,281.84,408.69,280.19,409.7L280.19,409.7z"/>
			</g>
		</g>
	</g>
</g>
<g id="Lager_2" class="st0">
</g>
<g id="Lager_7">
	<g>
		<g>
			
				<rect x="645.17" y="345.47" transform="matrix(0.7379 -0.6749 0.6749 0.7379 -64.7378 530.6994)" class="st37" width="11.48" height="6.47"/>
			
				<rect x="639.84" y="338.14" transform="matrix(0.7379 -0.6749 0.6749 0.7379 -62.2095 525.5443)" class="st38" width="11.48" height="9.47"/>
			
				<rect x="634.5" y="333.78" transform="matrix(0.7379 -0.6749 0.6749 0.7379 -59.6565 520.4514)" class="st39" width="11.48" height="6.5"/>
		</g>
		<g>
			<path class="st40" d="M535.55,432.17c0.21,0.35,0.49,0.63,0.86,0.84C536.06,432.78,535.78,432.5,535.55,432.17z"/>
			<path class="st40" d="M546.23,443.87c0.01,0.01,0.02,0.03,0.03,0.04C546.25,443.9,546.24,443.88,546.23,443.87z"/>
			<path class="st40" d="M546.48,444.2c-0.04-0.04-0.07-0.09-0.11-0.14C546.41,444.11,546.45,444.16,546.48,444.2z"/>
			<path class="st41" d="M541.14,438.36c-1.13-1.25-1.8-2.92-1.72-4.74c-1.23,0.13-2.25-0.11-3.01-0.62
				c-0.37-0.21-0.65-0.49-0.86-0.84c-0.58-0.84-0.77-1.99-0.47-3.3l-0.02-0.03l-10.88,20.84l2.09,2.29L541.14,438.36z"/>
			<polygon class="st41" points="539.5,433.68 539.4,433.57 539.38,433.56 539.42,433.6 539.44,433.62 			"/>
			<polygon class="st42" points="519.95,457.78 520,457.73 519.96,457.74 			"/>
			<polygon class="st42" points="524.18,449.67 519.98,457.71 526.27,451.96 			"/>
			<path class="st43" d="M535.55,432.17c0.23,0.33,0.52,0.61,0.86,0.84c0.76,0.51,1.78,0.75,3.01,0.62c0-0.01,0-0.01,0-0.02
				l-0.04-0.04l0.02,0.01l92.44-84.54l-4.34-4.75l-92.44,84.54l0.02,0.03C534.78,430.18,534.97,431.32,535.55,432.17z"/>
			<path class="st44" d="M539.5,433.68l-0.06-0.06l-0.02-0.02c0,0.01,0,0.01,0,0.02c-0.07,1.81,0.59,3.49,1.72,4.74l0.03-0.03
				l-0.02,0.03c1.14,1.25,2.76,2.06,4.58,2.15c0.01,0,0.01,0,0.02,0l-0.02-0.02l-0.05-0.06l0.09,0.1l92.44-84.54l-3.17-3.47
				l-0.02-0.02l-3.17-3.47l-92.44,84.54L539.5,433.68z"/>
			<polygon class="st45" points="545.72,440.49 545.74,440.52 545.78,440.56 545.77,440.53 545.67,440.43 			"/>
			<path class="st45" d="M546.48,444.2c-0.04-0.04-0.07-0.09-0.11-0.14c-0.04-0.05-0.08-0.1-0.12-0.15
				c-0.01-0.01-0.02-0.03-0.03-0.04c-0.57-0.86-0.79-2.02-0.51-3.36c-1.82-0.09-3.44-0.9-4.58-2.15l0.02-0.03l-0.03,0.03
				l-14.87,13.6l0.02,0.02l2.09,2.29l21.73-8.98l-0.03-0.02C548.57,445.57,547.29,445.13,546.48,444.2z"/>
			<polygon class="st46" points="526.27,451.96 519.98,457.71 519.93,457.76 519.96,457.74 520,457.73 528.38,454.26 526.29,451.98 
							"/>
			<path class="st47" d="M638.2,355.99l-92.44,84.54l0.01,0.02l-0.04-0.04c-0.01,0-0.02,0-0.02,0c-0.28,1.33-0.06,2.5,0.51,3.36
				c0.01,0.01,0.02,0.03,0.03,0.04c0.04,0.05,0.08,0.1,0.12,0.15c0.04,0.05,0.07,0.09,0.11,0.14c0.8,0.92,2.08,1.36,3.59,1.05
				l0.03,0.02l92.44-84.54L638.2,355.99z"/>
		</g>
		<g>
			
				<rect x="638.63" y="351.3" transform="matrix(0.7379 -0.6749 0.6749 0.7379 -70.7371 528.2419)" class="st48" width="12.32" height="7.79"/>
			
				<rect x="632.85" y="344.15" transform="matrix(0.7379 -0.6749 0.6749 0.7379 -67.9809 522.7188)" class="st49" width="12.32" height="9.47"/>
			
				<rect x="627.07" y="338.67" transform="matrix(0.7379 -0.6749 0.6749 0.7379 -65.2364 517.1434)" class="st50" width="12.32" height="7.79"/>
		</g>
	</g>
</g>
<g id="Lager_3">
	<path id="XMLID_304_" class="st51" d="M655.64,489.88c0,0-1.63-3.38-6.11-2.94c-4.47,0.44-3.3-3.6-8.32-4.25
		c-5.01-0.65-5.92,0.83-12.02-4.29c-6.1-5.12-11.16,4.03-15.7,0.23c-4.54-3.79-7.79-9.91-15.47-7.54c-7.68,2.37-4.45,8.42-9,10.7
		c-4.55,2.28-9.29,3.02-11.21,8.22L655.64,489.88z"/>
	<path id="XMLID_306_" class="st51" d="M77.84,487.88c0,0,1.63-3.38,6.11-2.94c4.47,0.44,3.3-3.6,8.32-4.25
		c5.01-0.65,5.92,0.83,12.02-4.29c6.1-5.12,11.16,4.03,15.7,0.23c4.54-3.79,7.79-9.91,15.47-7.54c7.68,2.37,4.45,8.42,9,10.7
		c4.55,2.28,9.29,3.02,11.21,8.22L77.84,487.88z"/>
	<path id="XMLID_317_" class="st3" d="M697.32,117h-80.51c0,0,4.03-9.71,9.06-10.12c5.03-0.4,6.44,2.69,8.05,2.39
		c1.61-0.3,4.23-8.32,10.67-8.72c6.44-0.4,8.96,5.6,12.48,6.71c3.52,1.11,10.47,0.49,15.9-8.27c5.43-8.75,15.74,0.65,16,7.39
		c0.4,10.37,16.2,4.61,16.2,10.61H697.32z"/>
	<path id="XMLID_333_" class="st3" d="M80.32,182H-0.19c0,0,4.03-9.71,9.06-10.12c5.03-0.4,6.44,2.69,8.05,2.39
		c1.61-0.3,4.23-8.32,10.67-8.72c6.44-0.4,8.96,5.6,12.48,6.71c3.52,1.11,10.47,0.49,15.9-8.27c5.43-8.75,15.74,0.65,16,7.39
		c0.4,10.36,16.2,4.61,16.2,10.61H80.32z"/>
	<g id="XMLID_4_" class="st52">
		<path id="XMLID_14_" class="st3" d="M609.2,221.94c1.72-2.03,2.76-4.65,2.76-7.52c0-6.43-5.22-11.65-11.65-11.65
			c-6.43,0-11.65,5.22-11.65,11.65c0,0.26,0.02,0.52,0.04,0.78l-0.08,0.01c0.02-0.26,0.04-0.53,0.04-0.8
			c0-6.43-5.22-11.65-11.65-11.65c-6.43,0-11.65,5.22-11.65,11.65c0,3.47,1.53,6.58,3.94,8.71l19.36,19.65l19.43-19.71
			c0.36-0.32,0.7-0.66,1.02-1.03L609.2,221.94L609.2,221.94z"/>
		<path id="XMLID_13_" class="st3" d="M290.06,42.16c1.43-1.69,2.29-3.87,2.29-6.25c0-5.35-4.33-9.68-9.68-9.68
			c-5.35,0-9.68,4.33-9.68,9.68c0,0.22,0.02,0.44,0.03,0.65l-0.07,0.01c0.01-0.22,0.03-0.44,0.03-0.66c0-5.35-4.33-9.68-9.68-9.68
			c-5.35,0-9.68,4.33-9.68,9.68c0,2.89,1.27,5.47,3.27,7.24l16.09,16.33l16.15-16.38c0.3-0.27,0.58-0.55,0.84-0.86L290.06,42.16
			L290.06,42.16z"/>
		<path id="XMLID_12_" class="st3" d="M114.82,262.58c1.43-1.69,2.29-3.87,2.29-6.25c0-5.35-4.33-9.68-9.68-9.68
			c-5.35,0-9.68,4.33-9.68,9.68c0,0.22,0.02,0.44,0.03,0.65l-0.07,0.01c0.01-0.22,0.03-0.44,0.03-0.66c0-5.35-4.33-9.68-9.68-9.68
			c-5.35,0-9.68,4.33-9.68,9.68c0,2.89,1.27,5.47,3.27,7.24l16.09,16.33l16.15-16.38c0.3-0.27,0.58-0.55,0.84-0.86L114.82,262.58
			L114.82,262.58z"/>
		<path id="XMLID_11_" class="st3" d="M652.99,323.65c0.69-0.81,1.11-1.86,1.11-3.01c0-2.58-2.09-4.67-4.67-4.67
			s-4.67,2.09-4.67,4.67c0,0.11,0.01,0.21,0.02,0.31l-0.03,0c0.01-0.11,0.02-0.21,0.02-0.32c0-2.58-2.09-4.67-4.67-4.67
			c-2.58,0-4.67,2.09-4.67,4.67c0,1.39,0.61,2.64,1.58,3.49l7.76,7.87l7.79-7.9c0.14-0.13,0.28-0.27,0.41-0.41L652.99,323.65
			L652.99,323.65z"/>
		<path id="XMLID_10_" class="st3" d="M550.89,17.52c0.69-0.81,1.11-1.86,1.11-3.01c0-2.58-2.09-4.67-4.67-4.67
			s-4.67,2.09-4.67,4.67c0,0.11,0.01,0.21,0.02,0.31l-0.03,0c0.01-0.11,0.02-0.21,0.02-0.32c0-2.58-2.09-4.67-4.67-4.67
			s-4.67,2.09-4.67,4.67c0,1.39,0.61,2.64,1.58,3.49l7.76,7.87l7.79-7.9c0.14-0.13,0.28-0.27,0.41-0.41L550.89,17.52L550.89,17.52z"
			/>
		<path id="XMLID_9_" class="st3" d="M115.32,93.83c0.69-0.81,1.11-1.86,1.11-3.01c0-2.58-2.09-4.67-4.67-4.67s-4.67,2.09-4.67,4.67
			c0,0.11,0.01,0.21,0.02,0.31l-0.03,0c0.01-0.11,0.02-0.21,0.02-0.32c0-2.58-2.09-4.67-4.67-4.67c-2.58,0-4.67,2.09-4.67,4.67
			c0,1.39,0.61,2.64,1.58,3.49l7.76,7.87l7.79-7.9c0.14-0.13,0.28-0.27,0.41-0.41L115.32,93.83L115.32,93.83z"/>
		<path id="XMLID_8_" class="st3" d="M213.2,322.18c0.69-0.81,1.11-1.86,1.11-3.01c0-2.58-2.09-4.67-4.67-4.67s-4.67,2.09-4.67,4.67
			c0,0.11,0.01,0.21,0.02,0.31l-0.03,0c0.01-0.11,0.02-0.21,0.02-0.32c0-2.58-2.09-4.67-4.67-4.67c-2.58,0-4.67,2.09-4.67,4.67
			c0,1.39,0.61,2.64,1.58,3.49l7.76,7.87l7.79-7.9c0.14-0.13,0.28-0.27,0.41-0.41L213.2,322.18L213.2,322.18z"/>
	</g>
</g>
</svg>
